# Blender 5.2.0 LTS
# www.blender.org
mtllib chair.mtl
o Cube
v 21.000000 23.500000 -1.000000
v 21.000000 23.500000 1.000000
v 21.000000 21.500000 1.000000
v -1.000000 23.500000 -1.000000
v -1.000000 23.500000 1.000000
v -1.000000 21.500000 1.000000
v 21.000000 23.500000 -20.000000
v -1.000000 23.500000 -20.000000
v -1.000000 0.000000 1.000000
v -1.000000 0.000000 3.000000
v 21.000000 0.000000 1.000000
v 21.000000 0.000000 3.000000
v 21.000000 21.500000 -22.000000
v -1.000000 21.500000 -22.000000
v 21.000000 0.000000 -22.000000
v -1.000000 0.000000 -22.000000
v 21.000000 0.000000 -24.000000
v -1.000000 0.000000 -24.000000
v 21.000000 22.644737 -22.000000
v 21.000000 23.500000 -21.144737
v -1.000000 23.500000 -21.144737
v -1.000000 22.644737 -22.000000
v 21.000000 44.571438 -1.000000
v 21.000000 45.000000 -0.571438
v -1.000000 45.000000 -0.571438
v -1.000000 44.571438 -1.000000
v 21.000000 45.000000 0.622386
v 21.000000 44.622387 1.000000
v -1.000000 44.622387 1.000000
v -1.000000 45.000000 0.622386
v 21.000000 20.696056 -1.000000
v 21.000000 21.500000 -1.803944
v 21.000000 22.303944 -1.000000
v 21.000000 21.500000 -0.196056
v -1.000000 21.500000 -1.803944
v -1.000000 20.696056 -1.000000
v -1.000000 21.500000 -0.196056
v -1.000000 22.303944 -1.000000
v 21.000000 21.500000 -19.150688
v 21.000000 20.650688 -20.000000
v 21.000000 21.500000 -20.849312
v 21.000000 22.349312 -20.000000
v -1.000000 20.650688 -20.000000
v -1.000000 21.500000 -19.150688
v -1.000000 22.349312 -20.000000
v -1.000000 21.500000 -20.849312
vn -0.0000 -0.0000 1.0000
vn -0.0000 1.0000 -0.0000
vn -0.0000 -1.0000 -0.0000
vn -0.0000 0.0926 0.9957
vn -0.0000 0.0926 -0.9957
vn -0.0000 0.7071 -0.7071
vn -0.0000 -0.0000 -1.0000
vn -0.0000 0.7071 0.7071
vn 1.0000 -0.0000 -0.0000
vn -1.0000 -0.0000 -0.0000
vn -0.0000 -0.7071 -0.7071
vn -0.0000 -0.0962 -0.9954
vn -0.0000 -0.7071 0.7071
vn -0.0000 -0.0964 0.9953
vt 0.375000 0.750000
vt 0.625000 0.750000
vt 0.625000 1.000000
vt 0.375000 1.000000
vt 0.875000 0.500000
vt 0.625000 0.500000
vt 0.125000 0.500000
vt 0.375000 0.500000
vt 0.125000 0.750000
vt 0.375000 0.250000
vt 0.625000 0.250000
vt 0.518092 0.500000
vt 0.518092 0.250000
vt 0.875000 0.553570
vt 0.625000 0.553570
vt 0.625000 0.718532
vt 0.875000 0.702798
vt 0.625000 0.000000
vt 0.625000 0.047202
vt 0.625000 0.196430
vt 0.475493 0.500000
vt 0.375000 0.600493
vt 0.375000 0.250000
vt 0.375000 0.149507
vt 0.441995 0.250000
vt 0.375000 0.000000
vt 0.481164 0.500000
vt 0.445776 0.250000
s 0
usemtl Material
f 3/1/1 2/2/1 5/3/1 6/4/1
f 4/5/2 1/6/2 7/6/2 8/5/2
f 9/7/3 11/8/3 12/1/3 10/9/3
f 3/1/4 6/4/4 10/4/4 12/1/4
f 14/10/5 13/8/5 17/8/5 18/10/5
f 15/8/3 16/7/3 18/7/3 17/8/3
f 21/11/6 20/6/6 19/12/6 22/13/6
f 14/10/7 22/13/7 19/12/7 13/8/7
f 8/5/2 7/6/2 20/6/2 21/5/2
f 25/14/6 24/15/6 23/6/6 26/5/6
f 1/6/7 4/5/7 26/5/7 23/6/7
f 27/16/8 30/3/8 29/3/8 28/2/8
f 24/15/2 25/14/2 30/17/2 27/16/2
f 5/3/1 2/2/1 28/2/1 29/3/1
f 2/2/9 1/6/9 23/6/9 24/15/9 27/16/9 28/2/9
f 4/11/10 5/18/10 29/18/10 30/19/10 25/20/10 26/11/10
f 31/8/9 32/8/9 33/21/9 34/22/9
f 35/10/10 36/23/10 37/24/10 38/25/10
f 31/8/11 36/7/11 35/7/11 32/8/11
f 34/22/9 33/21/9 1/6/9 2/2/9 3/1/9
f 31/8/9 34/22/9 3/1/9 12/1/9 11/8/9
f 36/7/12 31/8/12 11/8/12 9/7/12
f 6/26/10 37/24/10 36/23/10 9/10/10 10/26/10
f 6/26/10 5/18/10 4/11/10 38/25/10 37/24/10
f 39/8/9 40/8/9 41/8/9 42/27/9
f 43/10/10 44/10/10 45/28/10 46/10/10
f 39/8/13 44/7/13 43/7/13 40/8/13
f 32/8/3 35/7/3 44/7/3 39/8/3
f 40/8/14 43/7/14 16/7/14 15/8/14
f 1/6/9 33/21/9 32/8/9 39/8/9 42/27/9 7/6/9
f 7/6/9 42/27/9 41/8/9 13/8/9 19/12/9 20/6/9
f 13/8/9 41/8/9 40/8/9 15/8/9 17/8/9
f 46/10/10 45/28/10 8/11/10 21/11/10 22/13/10 14/10/10
f 43/10/10 46/10/10 14/10/10 18/10/10 16/10/10
f 35/10/10 38/25/10 4/11/10 8/11/10 45/28/10 44/10/10
